<?xml version="1.0" encoding="UTF-8"?>
<svg xmlns="http://www.w3.org/2000/svg" xmlns:xlink="http://www.w3.org/1999/xlink" width="60px" height="60px" viewBox="0 0 65 65" version="1.1">
<g id="surface1">
<path style=" stroke:none;fill-rule:nonzero;fill:rgb(21.960784%,49.019608%,99.607843%);fill-opacity:1;" d="M 65.125 30.085938 C 65.125 31.742188 65.125 33.394531 65.085938 35.0625 C 64.988281 35.207031 64.914062 35.328125 64.875 35.457031 C 64.507812 36.71875 64.273438 38.039062 63.757812 39.234375 C 62.601562 41.898438 60.882812 44.148438 58.464844 45.84375 C 56.464844 47.242188 54.292969 48.152344 51.882812 48.488281 C 50.855469 48.632812 49.820312 48.707031 48.867188 48.804688 C 48.65625 50.289062 48.550781 51.769531 48.222656 53.195312 C 47.363281 56.949219 45.296875 59.910156 42.15625 62.15625 C 40.113281 63.617188 37.863281 64.488281 35.40625 64.882812 C 35.316406 64.898438 35.246094 65.042969 35.164062 65.125 C 33.511719 65.125 31.859375 65.125 30.191406 65.085938 C 29.867188 64.949219 29.566406 64.808594 29.253906 64.753906 C 26.160156 64.21875 23.558594 62.710938 21.261719 60.65625 C 20.574219 60.039062 20.039062 59.242188 19.46875 58.5 C 17.964844 56.542969 17.109375 54.3125 16.765625 51.882812 C 16.617188 50.855469 16.546875 49.820312 16.453125 48.867188 C 14.964844 48.65625 13.484375 48.554688 12.058594 48.222656 C 8.316406 47.347656 5.332031 45.316406 3.097656 42.15625 C 1.644531 40.109375 0.765625 37.863281 0.371094 35.40625 C 0.355469 35.316406 0.210938 35.246094 0.125 35.164062 C 0.125 33.511719 0.125 31.859375 0.167969 30.191406 C 0.304688 29.867188 0.445312 29.566406 0.5 29.253906 C 1.035156 26.160156 2.542969 23.558594 4.597656 21.261719 C 5.214844 20.574219 6.011719 20.039062 6.753906 19.46875 C 8.710938 17.964844 10.941406 17.109375 13.371094 16.765625 C 14.398438 16.617188 15.433594 16.546875 16.386719 16.453125 C 16.597656 14.964844 16.699219 13.484375 17.03125 12.058594 C 17.90625 8.316406 19.9375 5.332031 23.097656 3.097656 C 25.144531 1.644531 27.390625 0.765625 29.847656 0.371094 C 29.9375 0.355469 30.007812 0.210938 30.085938 0.125 C 31.742188 0.125 33.394531 0.125 35.0625 0.167969 C 35.164062 0.261719 35.242188 0.355469 35.332031 0.371094 C 37.246094 0.667969 39.09375 1.214844 40.734375 2.238281 C 41.992188 3.027344 43.226562 3.90625 44.292969 4.929688 C 45.207031 5.808594 45.957031 6.898438 46.613281 7.992188 C 47.835938 10.019531 48.496094 12.246094 48.625 14.625 C 48.660156 15.242188 48.742188 15.859375 48.792969 16.386719 C 50.300781 16.601562 51.78125 16.707031 53.210938 17.03125 C 56.964844 17.878906 59.894531 19.992188 62.152344 23.097656 C 63.625 25.128906 64.488281 27.386719 64.882812 29.847656 C 64.898438 29.9375 65.042969 30.007812 65.125 30.085938 M 35.289062 29.675781 C 35.292969 29.808594 35.296875 29.941406 35.25 30.144531 C 34.613281 30.515625 34.675781 29.949219 34.671875 29.660156 C 34.664062 26.871094 34.667969 24.082031 34.707031 21.289062 C 34.714844 20.421875 33.5 19.082031 32.648438 19.117188 C 31.742188 19.15625 30.933594 19.8125 30.609375 20.703125 C 30.539062 20.902344 30.28125 21.035156 30.089844 21.097656 C 30.210938 20.707031 30.332031 20.316406 30.535156 19.898438 C 30.59375 19.777344 30.65625 19.65625 30.753906 19.457031 C 31.378906 18.875 32.117188 18.71875 32.957031 18.773438 C 33.863281 18.832031 34.449219 19.359375 35.027344 20.011719 C 35.027344 19.808594 35.058594 19.65625 35.023438 19.515625 C 34.71875 18.191406 35.617188 16.769531 36.960938 16.648438 C 38.359375 16.523438 39.773438 16.539062 41.179688 16.507812 C 42 16.488281 42.816406 16.503906 43.679688 16.503906 C 43.632812 14.316406 43.027344 12.347656 42.046875 10.511719 C 40.660156 7.902344 38.285156 6.386719 35.605469 5.542969 C 31.796875 4.347656 28.316406 5.425781 25.3125 7.925781 C 22.671875 10.121094 21.789062 13.15625 21.550781 16.503906 C 23.589844 16.503906 25.511719 16.492188 27.433594 16.511719 C 27.863281 16.519531 28.316406 16.574219 28.707031 16.730469 C 29.875 17.1875 30.523438 18.484375 30.195312 19.777344 C 29.96875 20.675781 29.195312 21.628906 27.753906 21.59375 C 25.914062 21.546875 24.074219 21.582031 22.234375 21.582031 C 22.027344 21.582031 21.824219 21.601562 21.582031 21.613281 C 21.582031 23.703125 21.550781 25.753906 21.589844 27.800781 C 21.632812 29.703125 19.632812 30.914062 17.898438 30.015625 C 16.914062 29.503906 16.515625 28.613281 16.507812 27.542969 C 16.492188 25.765625 16.503906 23.988281 16.503906 22.214844 C 16.503906 22.011719 16.503906 21.808594 16.503906 21.5625 C 11.015625 21.882812 7.214844 24.472656 5.542969 29.648438 C 4.328125 33.410156 5.382812 36.886719 7.886719 39.890625 C 10.101562 42.550781 13.121094 43.46875 16.425781 43.703125 C 16.46875 43.566406 16.496094 43.53125 16.496094 43.492188 C 16.5 41.585938 16.457031 39.683594 16.527344 37.78125 C 16.550781 37.171875 16.738281 36.492188 17.070312 35.992188 C 18.015625 34.5625 20.613281 34.683594 21.304688 36.285156 C 21.503906 36.742188 21.5625 37.285156 21.570312 37.792969 C 21.597656 39.730469 21.582031 41.671875 21.582031 43.671875 C 21.84375 43.671875 22.050781 43.671875 22.253906 43.671875 C 24.136719 43.671875 26.023438 43.640625 27.902344 43.679688 C 29.925781 43.722656 30.632812 45.625 30.050781 47.167969 C 29.625 48.304688 28.6875 48.734375 27.539062 48.746094 C 25.761719 48.761719 23.984375 48.75 22.207031 48.75 C 22.003906 48.75 21.800781 48.75 21.554688 48.75 C 21.894531 54.191406 24.421875 57.976562 29.570312 59.679688 C 33.449219 60.964844 36.953125 59.796875 39.984375 57.285156 C 42.609375 55.113281 43.46875 52.078125 43.699219 48.75 C 42.214844 48.75 40.839844 48.765625 39.46875 48.746094 C 38.652344 48.734375 37.835938 48.683594 37.023438 48.621094 C 35.699219 48.523438 34.851562 47.210938 34.9375 46.09375 C 35.03125 44.878906 35.8125 43.617188 37.484375 43.664062 C 38.753906 43.699219 40.023438 43.671875 41.292969 43.671875 C 42.070312 43.671875 42.847656 43.671875 43.671875 43.671875 C 43.671875 41.515625 43.632812 39.425781 43.683594 37.339844 C 43.730469 35.332031 45.582031 34.644531 47.121094 35.183594 C 48.289062 35.59375 48.738281 36.550781 48.746094 37.726562 C 48.761719 39.691406 48.75 41.652344 48.75 43.691406 C 54.1875 43.351562 57.929688 40.8125 59.703125 35.652344 C 60.785156 32.507812 60.046875 29.515625 58.417969 26.785156 C 56.277344 23.199219 52.835938 21.808594 48.75 21.554688 C 48.75 23.582031 48.753906 25.523438 48.75 27.464844 C 48.746094 29.015625 48.054688 29.863281 46.542969 30.234375 C 45.179688 30.570312 43.636719 29.300781 43.660156 27.992188 C 43.699219 26.070312 43.671875 24.144531 43.671875 22.21875 C 43.671875 22.015625 43.652344 21.8125 43.644531 21.582031 C 41.726562 21.582031 39.867188 21.53125 38.007812 21.601562 C 36.84375 21.644531 35.898438 21.347656 35.152344 20.28125 C 35.199219 20.761719 35.234375 21.109375 35.191406 21.503906 C 35.140625 21.660156 35.046875 21.8125 35.046875 21.964844 C 35.039062 24.324219 35.035156 26.679688 35.050781 29.039062 C 35.050781 29.21875 35.195312 29.398438 35.289062 29.675781 Z M 35.289062 29.675781 "/>
<path style=" stroke:none;fill-rule:nonzero;fill:transparent;fill-opacity:1;" d="M 65.125 30.027344 C 65.042969 30.007812 64.898438 29.9375 64.882812 29.847656 C 64.488281 27.386719 63.625 25.128906 62.152344 23.097656 C 59.894531 19.992188 56.964844 17.878906 53.210938 17.03125 C 51.78125 16.707031 50.300781 16.601562 48.792969 16.386719 C 48.742188 15.859375 48.660156 15.242188 48.625 14.625 C 48.496094 12.246094 47.835938 10.019531 46.613281 7.992188 C 45.957031 6.898438 45.207031 5.808594 44.292969 4.929688 C 43.226562 3.90625 41.992188 3.027344 40.734375 2.238281 C 39.09375 1.214844 37.246094 0.667969 35.332031 0.371094 C 35.242188 0.355469 35.164062 0.261719 35.121094 0.167969 C 45.144531 0.125 55.121094 0.125 65.125 0.125 C 65.125 10.074219 65.125 20.023438 65.125 30.027344 Z M 65.125 30.027344 "/>
<path style=" stroke:none;fill-rule:nonzero;fill:transparent;fill-opacity:1;" d="M 35.226562 65.125 C 35.246094 65.042969 35.316406 64.898438 35.40625 64.882812 C 37.863281 64.488281 40.113281 63.617188 42.15625 62.15625 C 45.296875 59.910156 47.363281 56.949219 48.222656 53.195312 C 48.550781 51.769531 48.65625 50.289062 48.867188 48.804688 C 49.820312 48.707031 50.855469 48.632812 51.882812 48.488281 C 54.292969 48.152344 56.464844 47.242188 58.464844 45.84375 C 60.882812 44.148438 62.601562 41.898438 63.757812 39.234375 C 64.273438 38.039062 64.507812 36.71875 64.875 35.457031 C 64.914062 35.328125 64.988281 35.207031 65.085938 35.121094 C 65.125 45.144531 65.125 55.121094 65.125 65.125 C 55.179688 65.125 45.230469 65.125 35.226562 65.125 Z M 35.226562 65.125 "/>
<path style=" stroke:none;fill-rule:nonzero;fill:transparent;fill-opacity:1;" d="M 30.027344 0.125 C 30.007812 0.210938 29.9375 0.355469 29.847656 0.371094 C 27.390625 0.765625 25.144531 1.644531 23.097656 3.097656 C 19.9375 5.332031 17.90625 8.316406 17.03125 12.058594 C 16.699219 13.484375 16.597656 14.964844 16.386719 16.453125 C 15.433594 16.546875 14.398438 16.617188 13.371094 16.765625 C 10.941406 17.109375 8.710938 17.964844 6.753906 19.46875 C 6.011719 20.039062 5.214844 20.574219 4.597656 21.261719 C 2.542969 23.558594 1.035156 26.160156 0.5 29.253906 C 0.445312 29.566406 0.304688 29.867188 0.167969 30.132812 C 0.125 20.109375 0.125 10.132812 0.125 0.125 C 10.074219 0.125 20.023438 0.125 30.027344 0.125 Z M 30.027344 0.125 "/>
<path style=" stroke:none;fill-rule:nonzero;fill:transparent;fill-opacity:1;" d="M 0.125 35.226562 C 0.210938 35.246094 0.355469 35.316406 0.371094 35.40625 C 0.765625 37.863281 1.644531 40.109375 3.097656 42.15625 C 5.332031 45.316406 8.316406 47.347656 12.058594 48.222656 C 13.484375 48.554688 14.964844 48.65625 16.453125 48.867188 C 16.546875 49.820312 16.617188 50.855469 16.765625 51.882812 C 17.109375 54.3125 17.964844 56.542969 19.46875 58.5 C 20.039062 59.242188 20.574219 60.039062 21.261719 60.65625 C 23.558594 62.710938 26.160156 64.21875 29.253906 64.753906 C 29.566406 64.808594 29.867188 64.949219 30.132812 65.085938 C 20.109375 65.125 10.132812 65.125 0.125 65.125 C 0.125 55.179688 0.125 45.230469 0.125 35.226562 Z M 0.125 35.226562 "/>
<path style=" stroke:none;fill-rule:nonzero;fill:transparent;fill-opacity:1;" d="M 30.453125 19.925781 C 30.332031 20.316406 30.210938 20.707031 30.089844 21.207031 C 30.089844 24.230469 30.089844 27.140625 30.089844 30.085938 C 27.09375 30.085938 24.175781 30.136719 21.261719 30.070312 C 19.242188 30.027344 18.097656 32.144531 18.953125 33.84375 C 19.472656 34.878906 20.394531 35.289062 21.519531 35.292969 C 24.144531 35.296875 26.765625 35.292969 29.390625 35.292969 C 29.613281 35.292969 29.835938 35.292969 30.085938 35.292969 C 30.085938 38.253906 30.132812 41.128906 30.074219 44.003906 C 30.03125 45.984375 32.089844 47.136719 33.796875 46.324219 C 34.84375 45.824219 35.285156 44.910156 35.289062 43.785156 C 35.300781 41.183594 35.292969 38.582031 35.292969 35.980469 C 35.292969 35.757812 35.292969 35.535156 35.292969 35.292969 C 38.15625 35.292969 40.929688 35.304688 43.699219 35.28125 C 44.144531 35.277344 44.613281 35.199219 45.023438 35.035156 C 46.082031 34.609375 46.515625 33.667969 46.472656 32.257812 C 46.4375 31.085938 45.253906 30.0625 44.183594 30.074219 C 41.222656 30.109375 38.261719 30.078125 35.296875 30.074219 C 35.296875 29.941406 35.292969 29.808594 35.289062 29.570312 C 35.285156 26.792969 35.277344 24.125 35.273438 21.453125 C 35.234375 21.109375 35.199219 20.761719 35.152344 20.28125 C 35.898438 21.347656 36.84375 21.644531 38.007812 21.601562 C 39.867188 21.53125 41.726562 21.582031 43.644531 21.582031 C 43.652344 21.8125 43.671875 22.015625 43.671875 22.21875 C 43.671875 24.144531 43.699219 26.070312 43.660156 27.992188 C 43.636719 29.300781 45.179688 30.570312 46.542969 30.234375 C 48.054688 29.863281 48.746094 29.015625 48.75 27.464844 C 48.753906 25.523438 48.75 23.582031 48.75 21.554688 C 52.835938 21.808594 56.277344 23.199219 58.417969 26.785156 C 60.046875 29.515625 60.785156 32.507812 59.703125 35.652344 C 57.929688 40.8125 54.1875 43.351562 48.75 43.691406 C 48.75 41.652344 48.761719 39.691406 48.746094 37.726562 C 48.738281 36.550781 48.289062 35.59375 47.121094 35.183594 C 45.582031 34.644531 43.730469 35.332031 43.683594 37.339844 C 43.632812 39.425781 43.671875 41.515625 43.671875 43.671875 C 42.847656 43.671875 42.070312 43.671875 41.292969 43.671875 C 40.023438 43.671875 38.753906 43.699219 37.484375 43.664062 C 35.8125 43.617188 35.03125 44.878906 34.9375 46.09375 C 34.851562 47.210938 35.699219 48.523438 37.023438 48.621094 C 37.835938 48.683594 38.652344 48.734375 39.46875 48.746094 C 40.839844 48.765625 42.214844 48.75 43.699219 48.75 C 43.46875 52.078125 42.609375 55.113281 39.984375 57.285156 C 36.953125 59.796875 33.449219 60.964844 29.570312 59.679688 C 24.421875 57.976562 21.894531 54.191406 21.554688 48.75 C 21.800781 48.75 22.003906 48.75 22.207031 48.75 C 23.984375 48.75 25.761719 48.761719 27.539062 48.746094 C 28.6875 48.734375 29.625 48.304688 30.050781 47.167969 C 30.632812 45.625 29.925781 43.722656 27.902344 43.679688 C 26.023438 43.640625 24.136719 43.671875 22.253906 43.671875 C 22.050781 43.671875 21.84375 43.671875 21.582031 43.671875 C 21.582031 41.671875 21.597656 39.730469 21.570312 37.792969 C 21.5625 37.285156 21.503906 36.742188 21.304688 36.285156 C 20.613281 34.683594 18.015625 34.5625 17.070312 35.992188 C 16.738281 36.492188 16.550781 37.171875 16.527344 37.78125 C 16.457031 39.683594 16.5 41.585938 16.496094 43.492188 C 16.496094 43.53125 16.46875 43.566406 16.425781 43.703125 C 13.121094 43.46875 10.101562 42.550781 7.886719 39.890625 C 5.382812 36.886719 4.328125 33.410156 5.542969 29.648438 C 7.214844 24.472656 11.015625 21.882812 16.503906 21.5625 C 16.503906 21.808594 16.503906 22.011719 16.503906 22.214844 C 16.503906 23.988281 16.492188 25.765625 16.507812 27.542969 C 16.515625 28.613281 16.914062 29.503906 17.898438 30.015625 C 19.632812 30.914062 21.632812 29.703125 21.589844 27.800781 C 21.550781 25.753906 21.582031 23.703125 21.582031 21.613281 C 21.824219 21.601562 22.027344 21.582031 22.234375 21.582031 C 24.074219 21.582031 25.914062 21.546875 27.753906 21.59375 C 29.195312 21.628906 29.96875 20.675781 30.195312 19.777344 C 30.523438 18.484375 29.875 17.1875 28.707031 16.730469 C 28.316406 16.574219 27.863281 16.519531 27.433594 16.511719 C 25.511719 16.492188 23.589844 16.503906 21.550781 16.503906 C 21.789062 13.15625 22.671875 10.121094 25.3125 7.925781 C 28.316406 5.425781 31.796875 4.347656 35.605469 5.542969 C 38.285156 6.386719 40.660156 7.902344 42.046875 10.511719 C 43.027344 12.347656 43.632812 14.316406 43.679688 16.503906 C 42.816406 16.503906 42 16.488281 41.179688 16.507812 C 39.773438 16.539062 38.359375 16.523438 36.960938 16.648438 C 35.617188 16.769531 34.71875 18.191406 35.023438 19.515625 C 35.058594 19.65625 35.027344 19.808594 35.027344 20.011719 C 34.449219 19.359375 33.863281 18.832031 32.957031 18.773438 C 32.117188 18.71875 31.378906 18.875 30.695312 19.515625 C 30.578125 19.6875 30.515625 19.808594 30.453125 19.925781 Z M 30.453125 19.925781 "/>
<path style=" stroke:none;fill-rule:nonzero;fill:rgb(21.960784%,49.019608%,99.607843%);fill-opacity:1;" d="M 35.273438 30.109375 C 38.261719 30.078125 41.222656 30.109375 44.183594 30.074219 C 45.253906 30.0625 46.4375 31.085938 46.472656 32.257812 C 46.515625 33.667969 46.082031 34.609375 45.023438 35.035156 C 44.613281 35.199219 44.144531 35.277344 43.699219 35.28125 C 40.929688 35.304688 38.15625 35.292969 35.292969 35.292969 C 35.292969 35.535156 35.292969 35.757812 35.292969 35.980469 C 35.292969 38.582031 35.300781 41.183594 35.289062 43.785156 C 35.285156 44.910156 34.84375 45.824219 33.796875 46.324219 C 32.089844 47.136719 30.03125 45.984375 30.074219 44.003906 C 30.132812 41.128906 30.085938 38.253906 30.085938 35.292969 C 29.835938 35.292969 29.613281 35.292969 29.390625 35.292969 C 26.765625 35.292969 24.144531 35.296875 21.519531 35.292969 C 20.394531 35.289062 19.472656 34.878906 18.953125 33.84375 C 18.097656 32.144531 19.242188 30.027344 21.261719 30.070312 C 24.175781 30.136719 27.09375 30.085938 30.089844 30.085938 C 30.089844 27.140625 30.089844 24.230469 30.101562 21.261719 C 30.28125 21.035156 30.539062 20.902344 30.609375 20.703125 C 30.933594 19.8125 31.742188 19.15625 32.648438 19.117188 C 33.5 19.082031 34.714844 20.421875 34.707031 21.289062 C 34.667969 24.082031 34.664062 26.871094 34.671875 29.660156 C 34.675781 29.949219 34.613281 30.515625 35.273438 30.109375 Z M 35.273438 30.109375 "/>
<path style=" stroke:none;fill-rule:nonzero;fill:rgb(21.960784%,49.019608%,99.607843%);fill-opacity:1;" d="M 35.230469 21.480469 C 35.277344 24.125 35.285156 26.792969 35.28125 29.519531 C 35.195312 29.398438 35.050781 29.21875 35.050781 29.039062 C 35.035156 26.679688 35.039062 24.324219 35.046875 21.964844 C 35.046875 21.8125 35.140625 21.660156 35.230469 21.480469 Z M 35.230469 21.480469 "/>
<path style=" stroke:none;fill-rule:nonzero;fill:rgb(21.960784%,49.019608%,99.607843%);fill-opacity:1;" d="M 30.492188 19.910156 C 30.515625 19.808594 30.578125 19.6875 30.679688 19.554688 C 30.65625 19.65625 30.59375 19.777344 30.492188 19.910156 Z M 30.492188 19.910156 "/>
</g>
</svg>
