<svg id="visual" viewBox="0 0 1500 800" width="1500" height="800" xmlns="http://www.w3.org/2000/svg" xmlns:xlink="http://www.w3.org/1999/xlink" version="1.1"><rect x="0" y="0" width="1500" height="800" fill="#161616"></rect><path d="M0 240L20.8 240.2C41.7 240.3 83.3 240.7 125 238.8C166.7 237 208.3 233 250 233.2C291.7 233.3 333.3 237.7 375 229.3C416.7 221 458.3 200 500 186.5C541.7 173 583.3 167 625 180.2C666.7 193.3 708.3 225.7 750 232.7C791.7 239.7 833.3 221.3 875 220.2C916.7 219 958.3 235 1000 244C1041.7 253 1083.3 255 1125 257.2C1166.7 259.3 1208.3 261.7 1250 256.8C1291.7 252 1333.3 240 1375 238.7C1416.7 237.3 1458.3 246.7 1479.2 251.3L1500 256L1500 0L1479.2 0C1458.3 0 1416.7 0 1375 0C1333.3 0 1291.7 0 1250 0C1208.3 0 1166.7 0 1125 0C1083.3 0 1041.7 0 1000 0C958.3 0 916.7 0 875 0C833.3 0 791.7 0 750 0C708.3 0 666.7 0 625 0C583.3 0 541.7 0 500 0C458.3 0 416.7 0 375 0C333.3 0 291.7 0 250 0C208.3 0 166.7 0 125 0C83.3 0 41.7 0 20.8 0L0 0Z" fill="#100ad7"></path><path d="M0 185L20.8 187.5C41.7 190 83.3 195 125 203.3C166.7 211.7 208.3 223.3 250 222.3C291.7 221.3 333.3 207.7 375 205.8C416.7 204 458.3 214 500 211C541.7 208 583.3 192 625 191.3C666.7 190.7 708.3 205.3 750 209.7C791.7 214 833.3 208 875 194.8C916.7 181.7 958.3 161.3 1000 164.3C1041.7 167.3 1083.3 193.7 1125 193.8C1166.7 194 1208.3 168 1250 162.3C1291.7 156.7 1333.3 171.3 1375 185.3C1416.7 199.3 1458.3 212.7 1479.2 219.3L1500 226L1500 0L1479.2 0C1458.3 0 1416.7 0 1375 0C1333.3 0 1291.7 0 1250 0C1208.3 0 1166.7 0 1125 0C1083.3 0 1041.7 0 1000 0C958.3 0 916.7 0 875 0C833.3 0 791.7 0 750 0C708.3 0 666.7 0 625 0C583.3 0 541.7 0 500 0C458.3 0 416.7 0 375 0C333.3 0 291.7 0 250 0C208.3 0 166.7 0 125 0C83.3 0 41.7 0 20.8 0L0 0Z" fill="#022ae0"></path><path d="M0 143L20.8 144.7C41.7 146.3 83.3 149.7 125 148.3C166.7 147 208.3 141 250 144.5C291.7 148 333.3 161 375 158.7C416.7 156.3 458.3 138.7 500 139.7C541.7 140.7 583.3 160.3 625 164.2C666.7 168 708.3 156 750 143.5C791.7 131 833.3 118 875 114.3C916.7 110.7 958.3 116.3 1000 131C1041.7 145.7 1083.3 169.3 1125 168.8C1166.7 168.3 1208.3 143.7 1250 132.3C1291.7 121 1333.3 123 1375 134.3C1416.7 145.7 1458.3 166.3 1479.2 176.7L1500 187L1500 0L1479.2 0C1458.3 0 1416.7 0 1375 0C1333.3 0 1291.7 0 1250 0C1208.3 0 1166.7 0 1125 0C1083.3 0 1041.7 0 1000 0C958.3 0 916.7 0 875 0C833.3 0 791.7 0 750 0C708.3 0 666.7 0 625 0C583.3 0 541.7 0 500 0C458.3 0 416.7 0 375 0C333.3 0 291.7 0 250 0C208.3 0 166.7 0 125 0C83.3 0 41.7 0 20.8 0L0 0Z" fill="#003ee8"></path><path d="M0 105L20.8 99.5C41.7 94 83.3 83 125 82.7C166.7 82.3 208.3 92.7 250 103.3C291.7 114 333.3 125 375 132.8C416.7 140.7 458.3 145.3 500 139.2C541.7 133 583.3 116 625 109.8C666.7 103.7 708.3 108.3 750 107.2C791.7 106 833.3 99 875 96.7C916.7 94.3 958.3 96.7 1000 98.5C1041.7 100.3 1083.3 101.7 1125 107.7C1166.7 113.7 1208.3 124.3 1250 120.3C1291.7 116.3 1333.3 97.7 1375 88.3C1416.7 79 1458.3 79 1479.2 79L1500 79L1500 0L1479.2 0C1458.3 0 1416.7 0 1375 0C1333.3 0 1291.7 0 1250 0C1208.3 0 1166.7 0 1125 0C1083.3 0 1041.7 0 1000 0C958.3 0 916.7 0 875 0C833.3 0 791.7 0 750 0C708.3 0 666.7 0 625 0C583.3 0 541.7 0 500 0C458.3 0 416.7 0 375 0C333.3 0 291.7 0 250 0C208.3 0 166.7 0 125 0C83.3 0 41.7 0 20.8 0L0 0Z" fill="#004fee"></path><path d="M0 85L20.8 88.7C41.7 92.3 83.3 99.7 125 94.5C166.7 89.3 208.3 71.7 250 63.3C291.7 55 333.3 56 375 56.2C416.7 56.3 458.3 55.7 500 58.8C541.7 62 583.3 69 625 71.2C666.7 73.3 708.3 70.7 750 69.3C791.7 68 833.3 68 875 67C916.7 66 958.3 64 1000 69.3C1041.7 74.7 1083.3 87.3 1125 94C1166.7 100.7 1208.3 101.3 1250 93.5C1291.7 85.7 1333.3 69.3 1375 67.2C1416.7 65 1458.3 77 1479.2 83L1500 89L1500 0L1479.2 0C1458.3 0 1416.7 0 1375 0C1333.3 0 1291.7 0 1250 0C1208.3 0 1166.7 0 1125 0C1083.3 0 1041.7 0 1000 0C958.3 0 916.7 0 875 0C833.3 0 791.7 0 750 0C708.3 0 666.7 0 625 0C583.3 0 541.7 0 500 0C458.3 0 416.7 0 375 0C333.3 0 291.7 0 250 0C208.3 0 166.7 0 125 0C83.3 0 41.7 0 20.8 0L0 0Z" fill="#005ff4"></path><path d="M0 35L20.8 35.3C41.7 35.7 83.3 36.3 125 38.7C166.7 41 208.3 45 250 45C291.7 45 333.3 41 375 41.3C416.7 41.7 458.3 46.3 500 51.2C541.7 56 583.3 61 625 59.2C666.7 57.3 708.3 48.7 750 42.2C791.7 35.7 833.3 31.3 875 34C916.7 36.7 958.3 46.3 1000 53C1041.7 59.7 1083.3 63.3 1125 63.8C1166.7 64.3 1208.3 61.7 1250 59.7C1291.7 57.7 1333.3 56.3 1375 50.7C1416.7 45 1458.3 35 1479.2 30L1500 25L1500 0L1479.2 0C1458.3 0 1416.7 0 1375 0C1333.3 0 1291.7 0 1250 0C1208.3 0 1166.7 0 1125 0C1083.3 0 1041.7 0 1000 0C958.3 0 916.7 0 875 0C833.3 0 791.7 0 750 0C708.3 0 666.7 0 625 0C583.3 0 541.7 0 500 0C458.3 0 416.7 0 375 0C333.3 0 291.7 0 250 0C208.3 0 166.7 0 125 0C83.3 0 41.7 0 20.8 0L0 0Z" fill="#046ef9"></path></svg>