<svg id="visual" viewBox="0 0 540 960" width="540" height="960" xmlns="http://www.w3.org/2000/svg" xmlns:xlink="http://www.w3.org/1999/xlink" version="1.1"><rect width="540" height="960" fill="#161616"></rect><g><g transform="translate(93 773)"><path d="M0 -19L19 0L0 19L-19 0Z" fill="#242424"></path></g><g transform="translate(504 706)"><path d="M0 -5L5 0L0 5L-5 0Z" fill="#242424"></path></g><g transform="translate(252 629)"><path d="M0 -4L4 0L0 4L-4 0Z" fill="#242424"></path></g><g transform="translate(230 669)"><path d="M0 -13L13 0L0 13L-13 0Z" fill="#242424"></path></g><g transform="translate(23 549)"><path d="M0 -11L11 0L0 11L-11 0Z" fill="#242424"></path></g><g transform="translate(165 828)"><path d="M0 -16L16 0L0 16L-16 0Z" fill="#242424"></path></g><g transform="translate(353 536)"><path d="M0 -16L16 0L0 16L-16 0Z" fill="#242424"></path></g><g transform="translate(283 174)"><path d="M0 -5L5 0L0 5L-5 0Z" fill="#242424"></path></g><g transform="translate(317 857)"><path d="M0 -15L15 0L0 15L-15 0Z" fill="#242424"></path></g><g transform="translate(349 379)"><path d="M0 -15L15 0L0 15L-15 0Z" fill="#242424"></path></g><g transform="translate(376 427)"><path d="M0 -10L10 0L0 10L-10 0Z" fill="#242424"></path></g><g transform="translate(112 862)"><path d="M0 -8L8 0L0 8L-8 0Z" fill="#242424"></path></g><g transform="translate(294 724)"><path d="M0 -13L13 0L0 13L-13 0Z" fill="#242424"></path></g><g transform="translate(130 599)"><path d="M0 -9L9 0L0 9L-9 0Z" fill="#242424"></path></g><g transform="translate(51 309)"><path d="M0 -15L15 0L0 15L-15 0Z" fill="#242424"></path></g><g transform="translate(169 661)"><path d="M0 -12L12 0L0 12L-12 0Z" fill="#242424"></path></g><g transform="translate(516 262)"><path d="M0 -4L4 0L0 4L-4 0Z" fill="#242424"></path></g><g transform="translate(435 829)"><path d="M0 -6L6 0L0 6L-6 0Z" fill="#242424"></path></g><g transform="translate(134 215)"><path d="M0 -18L18 0L0 18L-18 0Z" fill="#242424"></path></g><g transform="translate(166 526)"><path d="M0 -17L17 0L0 17L-17 0Z" fill="#242424"></path></g><g transform="translate(309 560)"><path d="M0 -8L8 0L0 8L-8 0Z" fill="#242424"></path></g><g transform="translate(29 766)"><path d="M0 -10L10 0L0 10L-10 0Z" fill="#242424"></path></g><g transform="translate(514 352)"><path d="M0 -18L18 0L0 18L-18 0Z" fill="#242424"></path></g><g transform="translate(416 534)"><path d="M0 -14L14 0L0 14L-14 0Z" fill="#242424"></path></g><g transform="translate(21 108)"><path d="M0 -12L12 0L0 12L-12 0Z" fill="#242424"></path></g><g transform="translate(116 496)"><path d="M0 -14L14 0L0 14L-14 0Z" fill="#242424"></path></g><g transform="translate(111 270)"><path d="M0 -9L9 0L0 9L-9 0Z" fill="#242424"></path></g><g transform="translate(67 437)"><path d="M0 -18L18 0L0 18L-18 0Z" fill="#242424"></path></g><g transform="translate(108 662)"><path d="M0 -12L12 0L0 12L-12 0Z" fill="#242424"></path></g><g transform="translate(487 508)"><path d="M0 -15L15 0L0 15L-15 0Z" fill="#242424"></path></g><g transform="translate(281 887)"><path d="M0 -7L7 0L0 7L-7 0Z" fill="#242424"></path></g><g transform="translate(25 710)"><path d="M0 -7L7 0L0 7L-7 0Z" fill="#242424"></path></g><g transform="translate(22 665)"><path d="M0 -15L15 0L0 15L-15 0Z" fill="#242424"></path></g><g transform="translate(462 675)"><path d="M0 -16L16 0L0 16L-16 0Z" fill="#242424"></path></g><g transform="translate(121 85)"><path d="M0 -4L4 0L0 4L-4 0Z" fill="#242424"></path></g><g transform="translate(148 730)"><path d="M0 -14L14 0L0 14L-14 0Z" fill="#242424"></path></g><g transform="translate(261 484)"><path d="M0 -4L4 0L0 4L-4 0Z" fill="#242424"></path></g><g transform="translate(436 888)"><path d="M0 -17L17 0L0 17L-17 0Z" fill="#242424"></path></g><g transform="translate(443 159)"><path d="M0 -17L17 0L0 17L-17 0Z" fill="#242424"></path></g><g transform="translate(207 555)"><path d="M0 -18L18 0L0 18L-18 0Z" fill="#242424"></path></g><g transform="translate(64 87)"><path d="M0 -4L4 0L0 4L-4 0Z" fill="#242424"></path></g><g transform="translate(76 140)"><path d="M0 -4L4 0L0 4L-4 0Z" fill="#242424"></path></g><g transform="translate(516 819)"><path d="M0 -6L6 0L0 6L-6 0Z" fill="#242424"></path></g><g transform="translate(160 175)"><path d="M0 -5L5 0L0 5L-5 0Z" fill="#242424"></path></g><g transform="translate(368 708)"><path d="M0 -17L17 0L0 17L-17 0Z" fill="#242424"></path></g><g transform="translate(501 869)"><path d="M0 -8L8 0L0 8L-8 0Z" fill="#242424"></path></g><g transform="translate(245 99)"><path d="M0 -16L16 0L0 16L-16 0Z" fill="#242424"></path></g><g transform="translate(495 168)"><path d="M0 -10L10 0L0 10L-10 0Z" fill="#242424"></path></g><g transform="translate(420 192)"><path d="M0 -5L5 0L0 5L-5 0Z" fill="#242424"></path></g><g transform="translate(217 491)"><path d="M0 -4L4 0L0 4L-4 0Z" fill="#242424"></path></g><g transform="translate(342 896)"><path d="M0 -12L12 0L0 12L-12 0Z" fill="#242424"></path></g><g transform="translate(263 938)"><path d="M0 -4L4 0L0 4L-4 0Z" fill="#242424"></path></g><g transform="translate(452 453)"><path d="M0 -7L7 0L0 7L-7 0Z" fill="#242424"></path></g><g transform="translate(244 728)"><path d="M0 -4L4 0L0 4L-4 0Z" fill="#242424"></path></g><g transform="translate(184 348)"><path d="M0 -5L5 0L0 5L-5 0Z" fill="#242424"></path></g><g transform="translate(30 833)"><path d="M0 -4L4 0L0 4L-4 0Z" fill="#242424"></path></g><g transform="translate(366 765)"><path d="M0 -5L5 0L0 5L-5 0Z" fill="#242424"></path></g><g transform="translate(76 227)"><path d="M0 -14L14 0L0 14L-14 0Z" fill="#242424"></path></g><g transform="translate(351 662)"><path d="M0 -17L17 0L0 17L-17 0Z" fill="#242424"></path></g><g transform="translate(390 322)"><path d="M0 -14L14 0L0 14L-14 0Z" fill="#242424"></path></g><g transform="translate(342 459)"><path d="M0 -12L12 0L0 12L-12 0Z" fill="#242424"></path></g><g transform="translate(340 238)"><path d="M0 -17L17 0L0 17L-17 0Z" fill="#242424"></path></g><g transform="translate(194 440)"><path d="M0 -13L13 0L0 13L-13 0Z" fill="#242424"></path></g><g transform="translate(513 105)"><path d="M0 -16L16 0L0 16L-16 0Z" fill="#242424"></path></g><g transform="translate(403 357)"><path d="M0 -13L13 0L0 13L-13 0Z" fill="#242424"></path></g><g transform="translate(89 534)"><path d="M0 -9L9 0L0 9L-9 0Z" fill="#242424"></path></g><g transform="translate(424 738)"><path d="M0 -11L11 0L0 11L-11 0Z" fill="#242424"></path></g><g transform="translate(116 146)"><path d="M0 -11L11 0L0 11L-11 0Z" fill="#242424"></path></g><g transform="translate(476 409)"><path d="M0 -7L7 0L0 7L-7 0Z" fill="#242424"></path></g><g transform="translate(321 290)"><path d="M0 -10L10 0L0 10L-10 0Z" fill="#242424"></path></g><g transform="translate(379 483)"><path d="M0 -5L5 0L0 5L-5 0Z" fill="#242424"></path></g></g></svg>