<svg id="visual" viewBox="0 0 450 900" width="450" height="900" xmlns="http://www.w3.org/2000/svg" xmlns:xlink="http://www.w3.org/1999/xlink" version="1.1"><rect x="0" y="0" width="450" height="900" fill="#161616"></rect><g fill="#013375"><circle r="12" cx="375" cy="794"></circle><circle r="4" cx="264" cy="840"></circle><circle r="3" cx="252" cy="798"></circle><circle r="6" cx="346" cy="589"></circle><circle r="7" cx="268" cy="8"></circle><circle r="9" cx="408" cy="23"></circle><circle r="9" cx="167" cy="285"></circle><circle r="6" cx="407" cy="599"></circle><circle r="8" cx="134" cy="312"></circle><circle r="6" cx="94" cy="235"></circle><circle r="3" cx="360" cy="766"></circle><circle r="3" cx="97" cy="487"></circle><circle r="9" cx="301" cy="560"></circle><circle r="8" cx="429" cy="434"></circle><circle r="8" cx="157" cy="646"></circle><circle r="5" cx="296" cy="467"></circle><circle r="3" cx="392" cy="696"></circle><circle r="10" cx="125" cy="503"></circle><circle r="4" cx="127" cy="285"></circle><circle r="9" cx="59" cy="599"></circle><circle r="7" cx="221" cy="303"></circle><circle r="8" cx="235" cy="414"></circle><circle r="10" cx="18" cy="188"></circle><circle r="9" cx="410" cy="839"></circle><circle r="3" cx="196" cy="240"></circle><circle r="6" cx="313" cy="149"></circle><circle r="3" cx="186" cy="626"></circle><circle r="6" cx="142" cy="458"></circle><circle r="6" cx="402" cy="89"></circle><circle r="3" cx="12" cy="220"></circle><circle r="7" cx="262" cy="553"></circle><circle r="8" cx="447" cy="380"></circle><circle r="3" cx="355" cy="438"></circle><circle r="4" cx="176" cy="1"></circle><circle r="7" cx="360" cy="67"></circle><circle r="8" cx="386" cy="224"></circle><circle r="8" cx="294" cy="701"></circle><circle r="8" cx="339" cy="734"></circle><circle r="3" cx="92" cy="660"></circle><circle r="4" cx="418" cy="278"></circle><circle r="9" cx="361" cy="318"></circle><circle r="9" cx="178" cy="728"></circle><circle r="10" cx="106" cy="95"></circle><circle r="3" cx="110" cy="635"></circle><circle r="6" cx="231" cy="714"></circle><circle r="7" cx="19" cy="98"></circle><circle r="9" cx="272" cy="48"></circle><circle r="10" cx="210" cy="172"></circle><circle r="4" cx="101" cy="20"></circle><circle r="10" cx="196" cy="329"></circle><circle r="10" cx="77" cy="160"></circle><circle r="6" cx="348" cy="46"></circle><circle r="4" cx="69" cy="894"></circle><circle r="10" cx="9" cy="627"></circle><circle r="10" cx="108" cy="711"></circle><circle r="10" cx="143" cy="517"></circle><circle r="10" cx="139" cy="211"></circle><circle r="9" cx="362" cy="848"></circle><circle r="7" cx="10" cy="494"></circle><circle r="8" cx="312" cy="809"></circle><circle r="10" cx="252" cy="91"></circle><circle r="8" cx="304" cy="890"></circle><circle r="9" cx="80" cy="792"></circle><circle r="5" cx="395" cy="253"></circle><circle r="8" cx="435" cy="151"></circle><circle r="3" cx="77" cy="268"></circle><circle r="7" cx="188" cy="114"></circle><circle r="8" cx="375" cy="37"></circle><circle r="9" cx="212" cy="90"></circle><circle r="7" cx="213" cy="660"></circle><circle r="6" cx="89" cy="592"></circle><circle r="10" cx="165" cy="684"></circle><circle r="3" cx="31" cy="814"></circle><circle r="10" cx="290" cy="415"></circle><circle r="5" cx="181" cy="157"></circle><circle r="8" cx="142" cy="403"></circle><circle r="3" cx="193" cy="845"></circle><circle r="7" cx="446" cy="461"></circle><circle r="8" cx="255" cy="747"></circle><circle r="5" cx="240" cy="835"></circle><circle r="5" cx="222" cy="22"></circle><circle r="9" cx="18" cy="45"></circle><circle r="10" cx="118" cy="236"></circle><circle r="9" cx="176" cy="359"></circle><circle r="9" cx="406" cy="127"></circle><circle r="6" cx="90" cy="212"></circle><circle r="4" cx="213" cy="390"></circle><circle r="5" cx="92" cy="895"></circle><circle r="4" cx="363" cy="107"></circle><circle r="7" cx="352" cy="660"></circle><circle r="7" cx="309" cy="286"></circle><circle r="4" cx="138" cy="356"></circle><circle r="6" cx="282" cy="652"></circle><circle r="3" cx="301" cy="767"></circle><circle r="7" cx="384" cy="1"></circle><circle r="3" cx="320" cy="521"></circle><circle r="9" cx="42" cy="447"></circle><circle r="9" cx="145" cy="727"></circle><circle r="3" cx="435" cy="602"></circle><circle r="8" cx="368" cy="481"></circle><circle r="9" cx="137" cy="156"></circle><circle r="6" cx="39" cy="565"></circle><circle r="3" cx="35" cy="390"></circle><circle r="7" cx="380" cy="520"></circle><circle r="5" cx="64" cy="863"></circle><circle r="9" cx="257" cy="635"></circle><circle r="10" cx="11" cy="308"></circle><circle r="8" cx="193" cy="22"></circle><circle r="8" cx="38" cy="76"></circle><circle r="4" cx="416" cy="188"></circle><circle r="9" cx="280" cy="326"></circle><circle r="9" cx="279" cy="734"></circle><circle r="9" cx="349" cy="343"></circle><circle r="7" cx="266" cy="145"></circle><circle r="10" cx="173" cy="216"></circle><circle r="3" cx="393" cy="813"></circle><circle r="6" cx="76" cy="542"></circle><circle r="10" cx="303" cy="671"></circle><circle r="8" cx="308" cy="340"></circle><circle r="7" cx="160" cy="430"></circle><circle r="8" cx="323" cy="605"></circle><circle r="8" cx="181" cy="890"></circle><circle r="5" cx="441" cy="577"></circle><circle r="4" cx="11" cy="713"></circle></g></svg>