<svg id="visual" viewBox="0 0 450 900" width="450" height="900" xmlns="http://www.w3.org/2000/svg" xmlns:xlink="http://www.w3.org/1999/xlink" version="1.1"><rect x="0" y="0" width="450" height="900" fill="#161616"></rect><path d="M0 235L6.3 232C12.7 229 25.3 223 37.8 229.7C50.3 236.3 62.7 255.7 75.2 256.8C87.7 258 100.3 241 112.8 230.2C125.3 219.3 137.7 214.7 150.2 212.3C162.7 210 175.3 210 187.8 213.3C200.3 216.7 212.7 223.3 225.2 222.5C237.7 221.7 250.3 213.3 262.8 204.2C275.3 195 287.7 185 300.2 199.7C312.7 214.3 325.3 253.7 337.8 266.7C350.3 279.7 362.7 266.3 375.2 256.8C387.7 247.3 400.3 241.7 412.8 232C425.3 222.3 437.7 208.7 443.8 201.8L450 195L450 0L443.8 0C437.7 0 425.3 0 412.8 0C400.3 0 387.7 0 375.2 0C362.7 0 350.3 0 337.8 0C325.3 0 312.7 0 300.2 0C287.7 0 275.3 0 262.8 0C250.3 0 237.7 0 225.2 0C212.7 0 200.3 0 187.8 0C175.3 0 162.7 0 150.2 0C137.7 0 125.3 0 112.8 0C100.3 0 87.7 0 75.2 0C62.7 0 50.3 0 37.8 0C25.3 0 12.7 0 6.3 0L0 0Z" fill="#100ad7"></path><path d="M0 156L6.3 159.5C12.7 163 25.3 170 37.8 169.5C50.3 169 62.7 161 75.2 162.5C87.7 164 100.3 175 112.8 176.7C125.3 178.3 137.7 170.7 150.2 169C162.7 167.3 175.3 171.7 187.8 172.3C200.3 173 212.7 170 225.2 167.8C237.7 165.7 250.3 164.3 262.8 161.7C275.3 159 287.7 155 300.2 169.5C312.7 184 325.3 217 337.8 224.5C350.3 232 362.7 214 375.2 204.5C387.7 195 400.3 194 412.8 188.8C425.3 183.7 437.7 174.3 443.8 169.7L450 165L450 0L443.8 0C437.7 0 425.3 0 412.8 0C400.3 0 387.7 0 375.2 0C362.7 0 350.3 0 337.8 0C325.3 0 312.7 0 300.2 0C287.7 0 275.3 0 262.8 0C250.3 0 237.7 0 225.2 0C212.7 0 200.3 0 187.8 0C175.3 0 162.7 0 150.2 0C137.7 0 125.3 0 112.8 0C100.3 0 87.7 0 75.2 0C62.7 0 50.3 0 37.8 0C25.3 0 12.7 0 6.3 0L0 0Z" fill="#022ae0"></path><path d="M0 208L6.3 206.3C12.7 204.7 25.3 201.3 37.8 197.3C50.3 193.3 62.7 188.7 75.2 184C87.7 179.3 100.3 174.7 112.8 168.8C125.3 163 137.7 156 150.2 148.7C162.7 141.3 175.3 133.7 187.8 129.7C200.3 125.7 212.7 125.3 225.2 136.2C237.7 147 250.3 169 262.8 184.2C275.3 199.3 287.7 207.7 300.2 211.3C312.7 215 325.3 214 337.8 211.7C350.3 209.3 362.7 205.7 375.2 194.7C387.7 183.7 400.3 165.3 412.8 153.5C425.3 141.7 437.7 136.3 443.8 133.7L450 131L450 0L443.8 0C437.7 0 425.3 0 412.8 0C400.3 0 387.7 0 375.2 0C362.7 0 350.3 0 337.8 0C325.3 0 312.7 0 300.2 0C287.7 0 275.3 0 262.8 0C250.3 0 237.7 0 225.2 0C212.7 0 200.3 0 187.8 0C175.3 0 162.7 0 150.2 0C137.7 0 125.3 0 112.8 0C100.3 0 87.7 0 75.2 0C62.7 0 50.3 0 37.8 0C25.3 0 12.7 0 6.3 0L0 0Z" fill="#003ee8"></path><path d="M0 118L6.3 121.7C12.7 125.3 25.3 132.7 37.8 129.7C50.3 126.7 62.7 113.3 75.2 109C87.7 104.7 100.3 109.3 112.8 111C125.3 112.7 137.7 111.3 150.2 119.2C162.7 127 175.3 144 187.8 154.5C200.3 165 212.7 169 225.2 157.5C237.7 146 250.3 119 262.8 108.7C275.3 98.3 287.7 104.7 300.2 111.7C312.7 118.7 325.3 126.3 337.8 135.5C350.3 144.7 362.7 155.3 375.2 154C387.7 152.7 400.3 139.3 412.8 133.5C425.3 127.7 437.7 129.3 443.8 130.2L450 131L450 0L443.8 0C437.7 0 425.3 0 412.8 0C400.3 0 387.7 0 375.2 0C362.7 0 350.3 0 337.8 0C325.3 0 312.7 0 300.2 0C287.7 0 275.3 0 262.8 0C250.3 0 237.7 0 225.2 0C212.7 0 200.3 0 187.8 0C175.3 0 162.7 0 150.2 0C137.7 0 125.3 0 112.8 0C100.3 0 87.7 0 75.2 0C62.7 0 50.3 0 37.8 0C25.3 0 12.7 0 6.3 0L0 0Z" fill="#004fee"></path><path d="M0 86L6.3 84.3C12.7 82.7 25.3 79.3 37.8 85.7C50.3 92 62.7 108 75.2 110.7C87.7 113.3 100.3 102.7 112.8 94.7C125.3 86.7 137.7 81.3 150.2 76.8C162.7 72.3 175.3 68.7 187.8 74.7C200.3 80.7 212.7 96.3 225.2 106C237.7 115.7 250.3 119.3 262.8 116.2C275.3 113 287.7 103 300.2 91.7C312.7 80.3 325.3 67.7 337.8 68C350.3 68.3 362.7 81.7 375.2 85.3C387.7 89 400.3 83 412.8 84C425.3 85 437.7 93 443.8 97L450 101L450 0L443.8 0C437.7 0 425.3 0 412.8 0C400.3 0 387.7 0 375.2 0C362.7 0 350.3 0 337.8 0C325.3 0 312.7 0 300.2 0C287.7 0 275.3 0 262.8 0C250.3 0 237.7 0 225.2 0C212.7 0 200.3 0 187.8 0C175.3 0 162.7 0 150.2 0C137.7 0 125.3 0 112.8 0C100.3 0 87.7 0 75.2 0C62.7 0 50.3 0 37.8 0C25.3 0 12.7 0 6.3 0L0 0Z" fill="#005ff4"></path><path d="M0 76L6.3 69.2C12.7 62.3 25.3 48.7 37.8 44.3C50.3 40 62.7 45 75.2 46.2C87.7 47.3 100.3 44.7 112.8 47.5C125.3 50.3 137.7 58.7 150.2 64.5C162.7 70.3 175.3 73.7 187.8 68.7C200.3 63.7 212.7 50.3 225.2 48.8C237.7 47.3 250.3 57.7 262.8 63.2C275.3 68.7 287.7 69.3 300.2 70.5C312.7 71.7 325.3 73.3 337.8 68.3C350.3 63.3 362.7 51.7 375.2 45.2C387.7 38.7 400.3 37.3 412.8 36.7C425.3 36 437.7 36 443.8 36L450 36L450 0L443.8 0C437.7 0 425.3 0 412.8 0C400.3 0 387.7 0 375.2 0C362.7 0 350.3 0 337.8 0C325.3 0 312.7 0 300.2 0C287.7 0 275.3 0 262.8 0C250.3 0 237.7 0 225.2 0C212.7 0 200.3 0 187.8 0C175.3 0 162.7 0 150.2 0C137.7 0 125.3 0 112.8 0C100.3 0 87.7 0 75.2 0C62.7 0 50.3 0 37.8 0C25.3 0 12.7 0 6.3 0L0 0Z" fill="#046ef9"></path></svg>